Coordinates
version=1
nRows=12
nColumns=23
inDegrees=yes

Units are S.I. units (second, meters, Newtons, ...)
If the header above contains a line with 'inDegrees', this indicates whether rotational values are in degrees (yes) or radians (no).

endheader
time	pelvis_tilt	pelvis_list	pelvis_rotation	pelvis_tx	pelvis_ty	pelvis_tz	hip_flexion_r	hip_adduction_r	hip_rotation_r	knee_angle_r	knee_angle_r_beta	ankle_angle_r	subtalar_angle_r	mtp_angle_r	hip_flexion_l	hip_adduction_l	hip_rotation_l	knee_angle_l	knee_angle_l_beta	ankle_angle_l	subtalar_angle_l	mtp_angle_l
     24.49333333	      3.30273883	      1.56654856	     -1.39762126	      2.23286301	      1.03742143	      1.00977326	    -14.34010354	      0.82101640	      2.32777835	     26.41135354	      0.46096508	      3.04733848	     -5.71773117	      0.00000000	     23.78068876	     -1.71394036	     -6.25116508	     47.04522710	      0.82109411	      7.42358190	    -23.47407622	      0.00000000
     24.50000000	      3.12257932	      2.02761060	     -1.19363527	      2.23402859	      1.04147051	      1.00921557	    -15.31054068	      0.10609915	      1.33968711	     25.50224981	      0.44509823	      0.27467118	     -4.90662234	      0.00000000	     23.72466981	     -1.18898479	     -7.26465602	     43.70621614	      0.76281738	      7.36485662	    -22.11176149	      0.00000000
     24.50666667	      2.94508510	      2.42555109	     -0.92762095	      2.23509093	      1.04534966	      1.00831645	    -16.18886812	     -0.52979188	      0.30006641	     24.73512543	      0.43170938	     -2.50552164	     -4.12519239	      0.00000000	     23.62028055	     -0.59372014	     -8.09101249	     40.35438197	      0.70431683	      7.32153847	    -20.43019969	      0.00000000
     24.51333333	      2.64717160	      2.71122774	     -0.56958592	      2.23610838	      1.04884804	      1.00701108	    -16.83998808	     -1.02706409	     -0.77717070	     24.13015158	      0.42115059	     -5.23902038	     -3.30980150	      0.00000000	     23.63563351	      0.04829858	     -8.57409955	     37.08029001	      0.64717315	      7.29028833	    -18.48965265	      0.00000000
     24.52000000	      2.05724921	      2.83831308	     -0.09295100	      2.23703522	      1.05173000	      1.00529339	    -17.05129080	     -1.31022404	     -1.76252527	     23.74877496	      0.41449432	     -7.91114194	     -2.80179913	      0.00000000	     23.98119589	      0.70003176	     -8.59305688	     33.93803169	      0.59233039	      7.19737218	    -16.43551477	      0.00000000
     24.52666667	      2.05343512	      3.03876240	      0.26410256	      2.23790802	      1.05504158	      1.00363446	    -17.83561414	     -1.73816363	     -2.84078624	     23.42706444	      0.40887941	    -10.42434501	     -1.86963863	      0.00000000	     23.59984381	      1.44927190	     -8.56077488	     30.81865448	      0.53788699	      7.16027913	    -14.06141016	      0.00000000
     24.53333333	      1.76259541	      3.08884142	      0.69390912	      2.23874172	      1.05765731	      1.00169599	    -18.18106751	     -1.97416435	     -3.74575320	     23.34221425	      0.40739849	    -12.78822448	     -1.23047258	      0.00000000	     23.55330245	      2.15443711	     -8.06549406	     27.92103935	      0.48731407	      7.10527754	    -11.70564284	      0.00000000
     24.54000000	      1.51026824	      3.10673511	      1.09253678	      2.23957020	      1.05994582	      0.99974282	    -18.45133447	     -2.18940002	     -4.55663536	     23.46013830	      0.40945666	    -14.96362999	     -0.66699085	      0.00000000	     23.44856668	      2.84580483	     -7.33674879	     25.22326664	      0.44022905	      7.05963063	     -9.34025342	      0.00000000
     24.54666667	      1.00020841	      2.94331077	      1.38003179	      2.24039234	      1.06158635	      0.99783191	    -18.27990630	     -2.24541645	     -5.00669752	     23.82273637	      0.41578519	    -17.01147877	     -0.42954887	      0.00000000	     23.64916270	      3.33490701	     -6.36115382	     22.82343693	      0.39834412	      6.98990293	     -7.26548132	      0.00000000
     24.55333333	      0.81433695	      2.99284664	      1.73611782	      2.24122288	      1.06303194	      0.99600971	    -18.37352506	     -2.50772000	     -5.65783480	     24.41983552	      0.42620653	    -18.64515111	     -0.16156426	      0.00000000	     23.48414764	      3.99937856	     -5.41027366	     20.67182877	      0.36079147	      7.01118314	     -4.94127719	      0.00000000
     24.56000000	      1.05121663	      3.14307146	      1.89726532	      2.24202687	      1.06450941	      0.99459251	    -18.81133418	     -2.93650936	     -6.21611472	     25.19662278	      0.43976403	    -20.03961554	      0.24255928	      0.00000000	     22.86964691	      4.61748608	     -4.70058509	     18.82839096	      0.32861742	      7.16586624	     -2.59527448	      0.00000000
     24.56666667	      0.89739532	      3.19410526	      2.05792900	      2.24280120	      1.06505956	      0.99325701	    -18.65911499	     -3.23609838	     -6.47413547	     26.27461272	      0.45857850	    -21.20520349	      0.00325648	      0.00000000	     22.74161063	      5.11880609	     -3.82376881	     17.37208938	      0.30320016	      7.26321963	     -0.77230963	      0.00000000
